<svg width="74" height="16" viewBox="0 0 74 16" fill="none" xmlns="http://www.w3.org/2000/svg">
<path d="M3.33333 11.3333L7.33333 7.33333L3.33333 3.33333M8.66667 12.6667H14" stroke="#3B82F6" stroke-width="2.5" stroke-linecap="round" stroke-linejoin="round"/>
<path d="M21.0254 12V3.54492H23.0527L25.3906 9.73242H25.4961L27.8281 3.54492H29.8555V12H28.2793V6.24609H27.4062L29.0938 3.7793L25.9941 12H24.8867L21.793 3.7793L23.4746 6.24609H22.6016V12H21.0254ZM34.6074 12.1348C33.9473 12.1348 33.3789 12.002 32.9023 11.7363C32.4258 11.4668 32.0605 11.082 31.8066 10.582C31.5527 10.0781 31.4258 9.47656 31.4258 8.77734V8.76562C31.4258 8.07031 31.5547 7.47266 31.8125 6.97266C32.0703 6.47266 32.4355 6.08789 32.9082 5.81836C33.3848 5.54492 33.9512 5.4082 34.6074 5.4082C35.2637 5.4082 35.8281 5.54297 36.3008 5.8125C36.7773 6.08203 37.1445 6.46875 37.4023 6.97266C37.6602 7.47266 37.7891 8.07031 37.7891 8.76562V8.77734C37.7891 9.47656 37.6621 10.0781 37.4082 10.582C37.1543 11.082 36.7891 11.4668 36.3125 11.7363C35.8398 12.002 35.2715 12.1348 34.6074 12.1348ZM34.6074 10.793C34.9121 10.793 35.1699 10.7129 35.3809 10.5527C35.5918 10.3926 35.7539 10.1621 35.8672 9.86133C35.9805 9.56055 36.0371 9.19922 36.0371 8.77734V8.76562C36.0371 8.34375 35.9805 7.98438 35.8672 7.6875C35.7539 7.38672 35.5898 7.15625 35.375 6.99609C35.1641 6.83203 34.9082 6.75 34.6074 6.75C34.3066 6.75 34.0488 6.83203 33.834 6.99609C33.623 7.15625 33.4609 7.38672 33.3477 7.6875C33.2344 7.98438 33.1777 8.34375 33.1777 8.76562V8.77734C33.1777 9.20312 33.2324 9.56641 33.3418 9.86719C33.4551 10.168 33.6172 10.3984 33.8281 10.5586C34.043 10.7148 34.3027 10.793 34.6074 10.793ZM42.0254 12.1348C41.3535 12.1348 40.7812 12.0039 40.3086 11.7422C39.8398 11.4766 39.4824 11.0938 39.2363 10.5938C38.9902 10.0898 38.8672 9.48047 38.8672 8.76562V8.75391C38.8672 8.04297 38.9902 7.43945 39.2363 6.94336C39.4824 6.44727 39.8398 6.06836 40.3086 5.80664C40.7812 5.54102 41.3535 5.4082 42.0254 5.4082C42.5957 5.4082 43.0859 5.50586 43.4961 5.70117C43.9062 5.89648 44.2305 6.17188 44.4688 6.52734C44.707 6.88281 44.8516 7.30078 44.9023 7.78125V7.79883H43.3145L43.3086 7.78711C43.25 7.47461 43.1133 7.22461 42.8984 7.03711C42.6875 6.8457 42.3984 6.75 42.0312 6.75C41.7266 6.75 41.4668 6.82812 41.252 6.98438C41.041 7.13672 40.8809 7.36133 40.7715 7.6582C40.6621 7.95508 40.6074 8.32031 40.6074 8.75391V8.76562C40.6074 9.19922 40.6621 9.56836 40.7715 9.87305C40.8848 10.1738 41.0469 10.4023 41.2578 10.5586C41.4688 10.7148 41.7266 10.793 42.0312 10.793C42.3828 10.793 42.6641 10.7109 42.875 10.5469C43.0859 10.3828 43.2285 10.1367 43.3027 9.80859L43.3145 9.79102L44.8965 9.78516V9.82617C44.834 10.291 44.6836 10.6973 44.4453 11.0449C44.207 11.3926 43.8848 11.6621 43.4785 11.8535C43.0723 12.041 42.5879 12.1348 42.0254 12.1348ZM46.2969 12V3.08203H48.0078V12H46.2969ZM50.3574 12L48.377 9.19922L49.6543 8.17383L52.3789 12H50.3574ZM47.8906 9.96094L47.832 8.09766H48.1133L50.2695 5.54883H52.209L49.5547 8.47852L48.6406 9.16406L47.8906 9.96094ZM53.0234 12L55.959 3.54492H57.4648V5.23242H56.9492L54.8809 12H53.0234ZM54.5938 9.94922L55.0273 8.625H58.9355L59.3691 9.94922H54.5938ZM59.1172 12L57.0547 5.23242V3.54492H58.0391L60.9805 12H59.1172ZM63.3008 9.33398V7.95117H65.4688C65.9766 7.95117 66.3711 7.82227 66.6523 7.56445C66.9375 7.30273 67.0801 6.93164 67.0801 6.45117V6.43945C67.0801 5.95898 66.9375 5.58984 66.6523 5.33203C66.3711 5.07422 65.9766 4.94531 65.4688 4.94531H63.3008V3.54492H65.9023C66.4961 3.54492 67.0156 3.66602 67.4609 3.9082C67.9062 4.14648 68.252 4.48242 68.498 4.91602C68.748 5.34961 68.873 5.85547 68.873 6.43359V6.44531C68.873 7.02734 68.748 7.53516 68.498 7.96875C68.252 8.40234 67.9062 8.73828 67.4609 8.97656C67.0156 9.21484 66.4961 9.33398 65.9023 9.33398H63.3008ZM62.416 12V3.54492H64.1855V12H62.416ZM70.502 12V3.54492H72.2715V12H70.502Z" fill="#EDEDED"/>
</svg>
